<svg width="21" height="21" viewBox="0 0 21 21" fill="none" xmlns="http://www.w3.org/2000/svg">
<path d="M2.56189 18.7872H17.9332" stroke="#00A7C4" stroke-width="1.02476" stroke-linecap="round" stroke-linejoin="round"/>
<path d="M4.78217 7.15621H3.41585C2.94617 7.15621 2.56189 7.5405 2.56189 8.01017V15.3713C2.56189 15.841 2.94617 16.2253 3.41585 16.2253H4.78217C5.25185 16.2253 5.63614 15.841 5.63614 15.3713V8.01017C5.63614 7.5405 5.25185 7.15621 4.78217 7.15621Z" stroke="#00A7C4" stroke-width="1.02476" stroke-linecap="round" stroke-linejoin="round"/>
<path d="M10.9307 4.43207H9.56439C9.09471 4.43207 8.71042 4.81635 8.71042 5.28603V15.3713C8.71042 15.841 9.09471 16.2253 9.56439 16.2253H10.9307C11.4004 16.2253 11.7847 15.841 11.7847 15.3713V5.28603C11.7847 4.81635 11.4004 4.43207 10.9307 4.43207Z" stroke="#00A7C4" stroke-width="1.02476" stroke-linecap="round" stroke-linejoin="round"/>
<path d="M17.0792 1.70792H15.7129C15.2432 1.70792 14.859 2.09221 14.859 2.56189V15.3713C14.859 15.841 15.2432 16.2253 15.7129 16.2253H17.0792C17.5489 16.2253 17.9332 15.841 17.9332 15.3713V2.56189C17.9332 2.09221 17.5489 1.70792 17.0792 1.70792Z" stroke="#00A7C4" stroke-width="1.02476" stroke-linecap="round" stroke-linejoin="round"/>
</svg>
