<svg width="24" height="25" viewBox="0 0 24 25" fill="none" xmlns="http://www.w3.org/2000/svg">
<path d="M15.9999 19L14.9999 21.5M7.99994 19L6.99994 21.5M11.9999 19L10.9999 21.5M6.99994 15.5C4.23852 15.5 1.99994 13.2614 1.99994 10.5C1.99994 7.73856 4.23852 5.49998 6.99994 5.49998C7.03309 5.49998 7.06616 5.5003 7.09916 5.50095C8.00934 3.71958 9.86221 2.49998 11.9999 2.49998C14.5191 2.49998 16.6428 4.19373 17.2942 6.5046C17.3624 6.50153 17.431 6.49998 17.4999 6.49998C19.9852 6.49998 21.9999 8.5147 21.9999 11C21.9999 13.4853 19.9852 15.5 17.4999 15.5C13.7433 15.5 11.2351 15.5 6.99994 15.5Z" stroke="black" stroke-width="2" stroke-linecap="round" stroke-linejoin="round"/>
</svg>
