<svg width="24" height="25" viewBox="0 0 24 25" fill="none" xmlns="http://www.w3.org/2000/svg">
<path d="M12 16.4998C11.4477 16.4998 11 16.9475 11 17.4998C11 18.0521 11.4477 18.4998 12 18.4998C12.5523 18.4998 13 18.0521 13 17.4998C13 16.9475 12.5523 16.4998 12 16.4998ZM12 16.4998L12.0071 11M12 17.4998L12.0071 17.5069M16 17.4998C16 19.709 14.2091 21.4998 12 21.4998C9.79086 21.4998 8 19.709 8 17.4998C8 16.4854 8.37764 15.5591 9 14.854V6.5C9 4.84315 10.3431 3.5 12 3.5C13.6569 3.5 15 4.84315 15 6.5V14.854C15.6224 15.5591 16 16.4854 16 17.4998Z" stroke="black" stroke-width="2.08333" stroke-linecap="round" stroke-linejoin="round"/>
</svg>
