<svg width="24" height="25" viewBox="0 0 24 25" fill="none" xmlns="http://www.w3.org/2000/svg">
<path d="M15.7639 7.5C16.3132 6.88625 17.1115 6.5 18 6.5C19.6569 6.5 21 7.84315 21 9.5C21 11.1569 19.6569 12.5 18 12.5H3M8.50926 5.16667C8.87548 4.7575 9.40767 4.5 10 4.5C11.1046 4.5 12 5.39543 12 6.5C12 7.60457 11.1046 8.5 10 8.5H3M11.5093 19.8333C11.8755 20.2425 12.4077 20.5 13 20.5C14.1046 20.5 15 19.6046 15 18.5C15 17.3954 14.1046 16.5 13 16.5H3" stroke="black" stroke-width="2" stroke-linecap="round" stroke-linejoin="round"/>
</svg>
